REM DIRINDEX 1\2,1\3,1\4,1\5
REM DIRNAME "folder01","folder02","folder03","folder04","folder05"
TITLE ""
FILE "P1Q_t_0659-0668.mp3" MP3
  TRACK 01 AUDIO
    TITLE "3:cjc173_2914"
    INDEX 01 00:00:00
  TRACK 02 AUDIO
    TITLE "0:"
    INDEX 01 00:00:73
  TRACK 03 AUDIO
    TITLE "4:cjc173_2915"
    INDEX 01 00:01:22
  TRACK 04 AUDIO
    TITLE "0:"
    INDEX 01 00:04:32
  TRACK 05 AUDIO
    TITLE "5:cjc173_2916"
    INDEX 01 00:04:51
  TRACK 06 AUDIO
    TITLE "0:"
    INDEX 01 00:09:23
  TRACK 07 AUDIO
    TITLE "3:cjc173_2917"
    INDEX 01 00:10:01
  TRACK 08 AUDIO
    TITLE "0:"
    INDEX 01 00:11:32
  TRACK 09 AUDIO
    TITLE "4:cjc173_2918"
    INDEX 01 00:11:53
  TRACK 10 AUDIO
    TITLE "0:"
    INDEX 01 00:13:54
  TRACK 11 AUDIO
    TITLE "5:cjc173_2919"
    INDEX 01 00:13:74
  TRACK 12 AUDIO
    TITLE "0:"
    INDEX 01 00:19:47
  TRACK 13 AUDIO
    TITLE "3:cjc173_2920"
    INDEX 01 00:20:19
  TRACK 14 AUDIO
    TITLE "0:"
    INDEX 01 00:21:32
  TRACK 15 AUDIO
    TITLE "4:cjc173_2921"
    INDEX 01 00:21:54
  TRACK 16 AUDIO
    TITLE "0:"
    INDEX 01 00:23:62
  TRACK 17 AUDIO
    TITLE "5:cjc173_2922"
    INDEX 01 00:24:07
  TRACK 18 AUDIO
    TITLE "0:"
    INDEX 01 00:28:56
  TRACK 19 AUDIO
    TITLE "3:cjc173_2923"
    INDEX 01 00:29:26
  TRACK 20 AUDIO
    TITLE "0:"
    INDEX 01 00:30:45
  TRACK 21 AUDIO
    TITLE "4:cjc173_2924"
    INDEX 01 00:30:68
  TRACK 22 AUDIO
    TITLE "0:"
    INDEX 01 00:32:65
  TRACK 23 AUDIO
    TITLE "5:cjc173_2925"
    INDEX 01 00:33:10
  TRACK 24 AUDIO
    TITLE "0:"
    INDEX 01 00:38:56
  TRACK 25 AUDIO
    TITLE "3:cjc173_2926"
    INDEX 01 00:39:26
  TRACK 26 AUDIO
    TITLE "0:"
    INDEX 01 00:40:35
  TRACK 27 AUDIO
    TITLE "4:cjc173_2927"
    INDEX 01 00:40:57
  TRACK 28 AUDIO
    TITLE "0:"
    INDEX 01 00:42:71
  TRACK 29 AUDIO
    TITLE "5:cjc173_2928"
    INDEX 01 00:43:16
  TRACK 30 AUDIO
    TITLE "0:"
    INDEX 01 00:47:41
  TRACK 31 AUDIO
    TITLE "3:cjc173_2929"
    INDEX 01 00:48:13
  TRACK 32 AUDIO
    TITLE "0:"
    INDEX 01 00:49:11
  TRACK 33 AUDIO
    TITLE "4:cjc173_2930"
    INDEX 01 00:49:34
  TRACK 34 AUDIO
    TITLE "0:"
    INDEX 01 00:53:10
  TRACK 35 AUDIO
    TITLE "5:cjc173_2931"
    INDEX 01 00:53:30
  TRACK 36 AUDIO
    TITLE "0:"
    INDEX 01 00:58:33
  TRACK 37 AUDIO
    TITLE "3:cjc173_2932"
    INDEX 01 00:59:03
  TRACK 38 AUDIO
    TITLE "0:"
    INDEX 01 01:00:22
  TRACK 39 AUDIO
    TITLE "4:cjc173_2933"
    INDEX 01 01:00:44
  TRACK 40 AUDIO
    TITLE "0:"
    INDEX 01 01:01:39
  TRACK 41 AUDIO
    TITLE "5:cjc173_2934"
    INDEX 01 01:01:59
  TRACK 42 AUDIO
    TITLE "0:"
    INDEX 01 01:06:29
  TRACK 43 AUDIO
    TITLE "3:cjc173_2935"
    INDEX 01 01:07:01
  TRACK 44 AUDIO
    TITLE "0:"
    INDEX 01 01:08:32
  TRACK 45 AUDIO
    TITLE "4:cjc173_2936"
    INDEX 01 01:08:53
  TRACK 46 AUDIO
    TITLE "0:"
    INDEX 01 01:11:63
  TRACK 47 AUDIO
    TITLE "5:cjc173_2937"
    INDEX 01 01:12:10
  TRACK 48 AUDIO
    TITLE "0:"
    INDEX 01 01:17:23
  TRACK 49 AUDIO
    TITLE "3:cjc173_2938"
    INDEX 01 01:17:68
  TRACK 50 AUDIO
    TITLE "0:"
    INDEX 01 01:19:20
  TRACK 51 AUDIO
    TITLE "4:cjc173_2939"
    INDEX 01 01:19:41
  TRACK 52 AUDIO
    TITLE "0:"
    INDEX 01 01:20:74
  TRACK 53 AUDIO
    TITLE "5:cjc173_2940"
    INDEX 01 01:21:21
  TRACK 54 AUDIO
    TITLE "0:"
    INDEX 01 01:25:09
  TRACK 55 AUDIO
    TITLE "3:cjc173_2941"
    INDEX 01 01:25:54
  TRACK 56 AUDIO
    TITLE "0:"
    INDEX 01 01:26:61
  TRACK 57 AUDIO
    TITLE "4:cjc173_2942"
    INDEX 01 01:27:09
  TRACK 58 AUDIO
    TITLE "0:"
    INDEX 01 01:31:11
  TRACK 59 AUDIO
    TITLE "5:cjc173_2943"
    INDEX 01 01:31:33
  TRACK 60 AUDIO
    TITLE "0:"
    INDEX 01 01:37:69
